<svg xmlns="http://www.w3.org/2000/svg" viewBox="0 0 400 240" role="img" aria-label="SmoothScroll theme switcher placeholder">
  <defs>
    <linearGradient id="thBgL" x1="0" y1="0" x2="1" y2="1">
      <stop offset="0%" stop-color="#fafafa"/>
      <stop offset="100%" stop-color="#e6e8ee"/>
    </linearGradient>
    <linearGradient id="thBgD" x1="0" y1="0" x2="1" y2="1">
      <stop offset="0%" stop-color="#1c1e27"/>
      <stop offset="100%" stop-color="#0a0b10"/>
    </linearGradient>
    <linearGradient id="thAccent" x1="0" y1="0" x2="1" y2="1">
      <stop offset="0%" stop-color="#6366f1"/>
      <stop offset="100%" stop-color="#a78bfa"/>
    </linearGradient>
  </defs>
  <rect width="400" height="240" fill="url(#thBgD)"/>
  <text x="20" y="32" font-family="-apple-system, Segoe UI, sans-serif" font-size="14" fill="#f5f6fa" font-weight="700">Appearance</text>
  <text x="20" y="50" font-family="-apple-system, Segoe UI, sans-serif" font-size="11" fill="#9aa0b3">Match system, or pick a theme.</text>
  <rect x="20" y="68" width="110" height="120" rx="12" fill="url(#thBgL)" stroke="#232531" stroke-width="1"/>
  <circle cx="42" cy="92" r="10" fill="#fbbf24"/>
  <rect x="32" y="116" width="86" height="6" rx="3" fill="#5b6273" opacity="0.4"/>
  <rect x="32" y="130" width="60" height="6" rx="3" fill="#5b6273" opacity="0.3"/>
  <text x="75" y="172" font-family="-apple-system, Segoe UI, sans-serif" font-size="11" fill="#0a0a0a" text-anchor="middle" font-weight="600">Light</text>
  <rect x="145" y="68" width="110" height="120" rx="12" fill="#0a0b10" stroke="url(#thAccent)" stroke-width="2"/>
  <circle cx="167" cy="92" r="10" fill="#a5b0ff"/>
  <rect x="157" y="116" width="86" height="6" rx="3" fill="#9aa0b3" opacity="0.4"/>
  <rect x="157" y="130" width="60" height="6" rx="3" fill="#9aa0b3" opacity="0.3"/>
  <text x="200" y="172" font-family="-apple-system, Segoe UI, sans-serif" font-size="11" fill="#a5b0ff" text-anchor="middle" font-weight="600">Dark · selected</text>
  <rect x="270" y="68" width="110" height="120" rx="12" fill="url(#thAccent)" opacity="0.85"/>
  <circle cx="292" cy="92" r="10" fill="#ffffff" opacity="0.9"/>
  <rect x="282" y="116" width="86" height="6" rx="3" fill="#ffffff" opacity="0.5"/>
  <rect x="282" y="130" width="60" height="6" rx="3" fill="#ffffff" opacity="0.35"/>
  <text x="325" y="172" font-family="-apple-system, Segoe UI, sans-serif" font-size="11" fill="#ffffff" text-anchor="middle" font-weight="600">Auto</text>
  <text x="20" y="220" font-family="-apple-system, Segoe UI, sans-serif" font-size="10" fill="#5b6273">Placeholder — replace with real theme switcher screenshot</text>
</svg>
