<svg xmlns="http://www.w3.org/2000/svg" viewBox="0 0 280 200" role="img" aria-label="SmoothScroll tray menu placeholder">
  <defs>
    <linearGradient id="trayBg" x1="0" y1="0" x2="0" y2="1">
      <stop offset="0%" stop-color="#1c1e27"/>
      <stop offset="100%" stop-color="#14151c"/>
    </linearGradient>
    <linearGradient id="trayAccent" x1="0" y1="0" x2="1" y2="1">
      <stop offset="0%" stop-color="#818cf8"/>
      <stop offset="100%" stop-color="#a78bfa"/>
    </linearGradient>
  </defs>
  <rect width="280" height="200" rx="12" fill="url(#trayBg)"/>
  <rect x="12" y="12" width="256" height="56" rx="8" fill="#0a0b10"/>
  <circle cx="36" cy="40" r="14" fill="url(#trayAccent)"/>
  <text x="36" y="46" font-family="-apple-system, Segoe UI, sans-serif" font-size="14" fill="#0a0b10" font-weight="700" text-anchor="middle">S</text>
  <text x="60" y="36" font-family="-apple-system, Segoe UI, sans-serif" font-size="13" fill="#f5f6fa" font-weight="600">SmoothScroll</text>
  <text x="60" y="52" font-family="-apple-system, Segoe UI, sans-serif" font-size="11" fill="#9aa0b3">Active · v0.1.15</text>
  <rect x="240" y="28" width="22" height="22" rx="11" fill="#22c55e" opacity="0.18"/>
  <circle cx="251" cy="39" r="5" fill="#22c55e"/>
  <line x1="12" y1="80" x2="268" y2="80" stroke="#232531" stroke-width="1"/>
  <text x="20" y="102" font-family="-apple-system, Segoe UI, sans-serif" font-size="11" fill="#5b6273">SCROLLING</text>
  <text x="20" y="124" font-family="-apple-system, Segoe UI, sans-serif" font-size="13" fill="#f5f6fa">Smoothing</text>
  <rect x="200" y="115" width="60" height="14" rx="7" fill="#232531"/>
  <text x="230" y="125" font-family="-apple-system, Segoe UI, sans-serif" font-size="10" fill="#a5b0ff" text-anchor="middle">Standard</text>
  <text x="20" y="148" font-family="-apple-system, Segoe UI, sans-serif" font-size="13" fill="#f5f6fa">Toggle</text>
  <rect x="220" y="138" width="40" height="20" rx="10" fill="url(#trayAccent)"/>
  <circle cx="250" cy="148" r="7" fill="#ffffff"/>
  <line x1="12" y1="170" x2="268" y2="170" stroke="#232531" stroke-width="1"/>
  <text x="20" y="190" font-family="-apple-system, Segoe UI, sans-serif" font-size="11" fill="#9aa0b3">Settings…</text>
  <text x="240" y="190" font-family="-apple-system, Segoe UI, sans-serif" font-size="11" fill="#9aa0b3" text-anchor="end">Quit</text>
</svg>
