<svg xmlns="http://www.w3.org/2000/svg" viewBox="0 0 800 480" role="img" aria-label="SmoothScroll settings panel placeholder">
  <defs>
    <linearGradient id="bg" x1="0" y1="0" x2="1" y2="1">
      <stop offset="0%" stop-color="#1c1e27"/>
      <stop offset="100%" stop-color="#0a0b10"/>
    </linearGradient>
    <linearGradient id="accent" x1="0" y1="0" x2="1" y2="1">
      <stop offset="0%" stop-color="#818cf8"/>
      <stop offset="100%" stop-color="#a78bfa"/>
    </linearGradient>
  </defs>
  <rect width="800" height="480" fill="url(#bg)"/>
  <rect x="0" y="0" width="800" height="48" fill="#14151c"/>
  <circle cx="20" cy="24" r="6" fill="#ef4444"/>
  <circle cx="40" cy="24" r="6" fill="#f59e0b"/>
  <circle cx="60" cy="24" r="6" fill="#22c55e"/>
  <text x="400" y="30" font-family="-apple-system, Segoe UI, sans-serif" font-size="13" fill="#9aa0b3" text-anchor="middle">SmoothScroll · Settings</text>
  <rect x="0" y="48" width="180" height="432" fill="#14151c"/>
  <rect x="16" y="72" width="148" height="36" rx="8" fill="url(#accent)" opacity="0.18"/>
  <text x="32" y="95" font-family="-apple-system, Segoe UI, sans-serif" font-size="13" fill="#f5f6fa" font-weight="600">General</text>
  <text x="32" y="135" font-family="-apple-system, Segoe UI, sans-serif" font-size="13" fill="#9aa0b3">Scrolling</text>
  <text x="32" y="165" font-family="-apple-system, Segoe UI, sans-serif" font-size="13" fill="#9aa0b3">Per-app rules</text>
  <text x="32" y="195" font-family="-apple-system, Segoe UI, sans-serif" font-size="13" fill="#9aa0b3">Hotkeys</text>
  <text x="32" y="225" font-family="-apple-system, Segoe UI, sans-serif" font-size="13" fill="#9aa0b3">Appearance</text>
  <text x="32" y="255" font-family="-apple-system, Segoe UI, sans-serif" font-size="13" fill="#9aa0b3">About</text>
  <text x="210" y="100" font-family="-apple-system, Segoe UI, sans-serif" font-size="22" fill="#f5f6fa" font-weight="700">General</text>
  <rect x="210" y="130" width="560" height="68" rx="12" fill="#14151c"/>
  <text x="230" y="158" font-family="-apple-system, Segoe UI, sans-serif" font-size="14" fill="#f5f6fa" font-weight="600">Launch at startup</text>
  <text x="230" y="180" font-family="-apple-system, Segoe UI, sans-serif" font-size="12" fill="#9aa0b3">Run SmoothScroll automatically when you sign in.</text>
  <rect x="710" y="156" width="44" height="24" rx="12" fill="url(#accent)"/>
  <circle cx="744" cy="168" r="9" fill="#ffffff"/>
  <rect x="210" y="210" width="560" height="68" rx="12" fill="#14151c"/>
  <text x="230" y="238" font-family="-apple-system, Segoe UI, sans-serif" font-size="14" fill="#f5f6fa" font-weight="600">Smoothing strength</text>
  <text x="230" y="260" font-family="-apple-system, Segoe UI, sans-serif" font-size="12" fill="#9aa0b3">Higher values feel more glide-y; lower values are crisper.</text>
  <rect x="500" y="246" width="240" height="4" rx="2" fill="#232531"/>
  <rect x="500" y="246" width="160" height="4" rx="2" fill="url(#accent)"/>
  <circle cx="660" cy="248" r="9" fill="#ffffff"/>
  <rect x="210" y="290" width="560" height="68" rx="12" fill="#14151c"/>
  <text x="230" y="318" font-family="-apple-system, Segoe UI, sans-serif" font-size="14" fill="#f5f6fa" font-weight="600">Pulse rate</text>
  <text x="230" y="340" font-family="-apple-system, Segoe UI, sans-serif" font-size="12" fill="#9aa0b3">120 Hz on supported displays.</text>
  <rect x="690" y="306" width="64" height="32" rx="8" fill="#232531"/>
  <text x="722" y="326" font-family="-apple-system, Segoe UI, sans-serif" font-size="12" fill="#f5f6fa" text-anchor="middle">120 Hz</text>
  <text x="400" y="430" font-family="-apple-system, Segoe UI, sans-serif" font-size="11" fill="#5b6273" text-anchor="middle">Placeholder preview — replace with real settings screenshot</text>
</svg>
